<svg xmlns="http://www.w3.org/2000/svg" viewBox="0 0 600 400" width="100%" height="100%">
  <defs>
    <linearGradient id="celBg" x1="0%" y1="0%" x2="100%" y2="100%">
      <stop offset="0%" stop-color="#fff1f2"/>
      <stop offset="100%" stop-color="#ffe4e6"/>
    </linearGradient>
  </defs>
  <rect width="600" height="400" rx="16" fill="url(#celBg)"/>

  <!-- Festival Pennant Flags Bunting -->
  <path d="M 0 40 Q 150 90 300 40 T 600 50" fill="none" stroke="#64748b" stroke-width="2"/>
  <polygon points="40,55 70,55 55,105" fill="#f43f5e"/>
  <polygon points="100,68 130,68 115,118" fill="#f59e0b"/>
  <polygon points="160,73 190,73 175,123" fill="#10b981"/>
  <polygon points="220,68 250,68 235,118" fill="#3b82f6"/>
  <polygon points="280,53 310,53 295,103" fill="#a855f7"/>
  <polygon points="340,43 370,43 355,93" fill="#f43f5e"/>
  <polygon points="400,45 430,45 415,95" fill="#f59e0b"/>
  <polygon points="460,48 490,48 475,98" fill="#10b981"/>
  <polygon points="520,50 550,50 535,100" fill="#3b82f6"/>

  <!-- Stage Curtains & Cultural Diya / Lamp for Rabindra Jayanti & Celebrations -->
  <!-- Classical Indian Diya / Lamp with Bright Flame -->
  <g transform="translate(250, 200)">
    <ellipse cx="50" cy="110" rx="55" ry="18" fill="#c2410c"/>
    <ellipse cx="50" cy="106" rx="46" ry="14" fill="#ea580c"/>
    <ellipse cx="50" cy="102" rx="38" ry="10" fill="#f59e0b"/>
    <!-- Glowing Flame -->
    <path d="M 50 40 Q 30 75 40 98 Q 50 105 60 98 Q 70 75 50 40 Z" fill="#facc15"/>
    <path d="M 50 55 Q 40 78 45 92 Q 50 97 55 92 Q 60 78 50 55 Z" fill="#ffffff"/>
  </g>

  <!-- Stage Lights & Confetti -->
  <g transform="translate(100, 160)">
    <circle cx="20" cy="20" r="10" fill="#f43f5e"/>
    <circle cx="80" cy="40" r="8" fill="#3b82f6"/>
    <circle cx="40" cy="90" r="12" fill="#10b981"/>
    <circle cx="90" cy="120" r="7" fill="#f59e0b"/>
  </g>

  <g transform="translate(420, 160)">
    <circle cx="60" cy="20" r="10" fill="#a855f7"/>
    <circle cx="10" cy="50" r="8" fill="#f43f5e"/>
    <circle cx="70" cy="90" r="12" fill="#f59e0b"/>
    <circle cx="20" cy="120" r="7" fill="#10b981"/>
  </g>
</svg>
